<svg xmlns="http://www.w3.org/2000/svg" width="468" height="372" fill="none"><g clip-path="url(#a)"><path fill="#ED7D31" fill-rule="evenodd" d="M60.172 125.023c-7.98-5.603-7.91-17.367.155-26.276 9.737-10.754 14.657-24.89 14.76-42.408-.103 17.518 4.662 29.658 14.295 36.422 7.98 5.602 7.91 17.367-.156 26.276-8.066 8.909-21.074 11.589-29.054 5.986Z" clip-rule="evenodd"/><path fill="#ED7D31" fill-rule="evenodd" d="M13.59 148.141c-16.214-12.268-17.276-34.596-2.371-49.872 17.99-18.44 26.196-44.283 24.615-77.53 1.581 33.247 12.158 57.275 31.73 72.084 16.215 12.268 17.276 34.596 2.372 49.872-14.905 15.275-40.132 17.714-56.346 5.446Z" clip-rule="evenodd"/><path fill="#FFD966" fill-rule="evenodd" d="M25.378 148.345c-9.382-7.098-10.183-19.826-1.788-28.43l15.2-15.577c5.66 4.284 11.323 8.569 16.986 12.852 9.382 7.099 10.182 19.827 1.788 28.431-8.394 8.602-22.804 9.823-32.186 2.724Z" clip-rule="evenodd"/><path fill="#EF904F" fill-rule="evenodd" d="M52.284 173.672c-.655-.758-.488-1.841.374-2.417l6.238-4.177c.861-.577 2.09-.429 2.746.329l12.402 14.364c.655.759.487 1.841-.374 2.418l-6.238 4.177c-.862.577-2.09.429-2.746-.329l-12.402-14.365Z" clip-rule="evenodd"/><path fill="#EF904F" fill-rule="evenodd" d="M58.81 182.475c0-1.276 1.175-2.31 2.624-2.31h35.34c1.45 0 2.624 1.034 2.624 2.31v9.239c0 1.275-1.174 2.31-2.623 2.31H61.434c-1.449 0-2.623-1.035-2.623-2.31v-9.239Z" clip-rule="evenodd"/><path fill="#E17E72" fill-rule="evenodd" d="M201.131 114.521c3.225-2.962 8.566-3.06 11.93-.22l24.359 20.57c3.364 2.841 3.476 7.545.25 10.506l-64.95 59.641c-3.225 2.962-8.566 3.06-11.93.22l-24.359-20.571c-3.364-2.841-3.476-7.544-.25-10.506l64.95-59.64ZM43.79 320.929c-2.107-4.166.017-9.048 4.748-10.905l187.095-73.442c4.731-1.857 10.275.014 12.384 4.18l15.271 30.168c2.109 4.166-.017 9.047-4.747 10.905L71.445 355.277c-4.73 1.856-10.274-.015-12.383-4.18l-15.271-30.168Z" clip-rule="evenodd"/><path fill="#E17E72" fill-rule="evenodd" d="M190.513 253.35c0-4.566 4.203-8.267 9.388-8.267h193.277c5.185 0 9.385 3.701 9.385 8.267v33.065c0 4.566-4.2 8.268-9.385 8.268H199.901c-5.185 0-9.388-3.702-9.388-8.268V253.35Z" clip-rule="evenodd"/><path fill="#FFC000" fill-rule="evenodd" d="M327.324 225.388c2.211 0 4.003 1.579 4.003 3.526v14.102c0 1.947-1.792 3.525-4.003 3.525H213.568c-2.211 0-4.003-1.578-4.003-3.525v-14.102c0-1.947 1.792-3.526 4.003-3.526h113.756Z" clip-rule="evenodd"/><path fill="#E17E72" fill-rule="evenodd" d="M423.826 245.083c5.185 0 9.385 3.701 9.385 8.267v108.195c0 4.566-4.2 8.267-9.385 8.267H386.27c-5.186 0-9.385-3.701-9.385-8.267V253.35c0-4.566 4.199-8.267 9.385-8.267h37.556Z" clip-rule="evenodd"/><path fill="#D95B4C" fill-rule="evenodd" d="M322.629 108.682c13.039 0 23.608 9.308 23.608 20.789v83.152c0 11.481-10.569 20.789-23.608 20.789H214.121c-13.038 0-23.608-9.308-23.608-20.789v-83.152c0-11.481 10.57-20.789 23.608-20.789h108.508Z" clip-rule="evenodd"/><path fill="#000" fill-rule="evenodd" stroke="#000" stroke-miterlimit="8" stroke-width="1.333" d="M428.241 343.188c2.973 0 5.384 2.123 5.384 4.742v18.964c0 2.619-2.411 4.741-5.384 4.741h-45.558c-2.973 0-5.384-2.122-5.384-4.741V347.93c0-2.619 2.411-4.742 5.384-4.742h45.558Z" clip-rule="evenodd"/><path fill="#D95B4C" fill-rule="evenodd" d="M329.532 245.083c9.226 0 16.705 6.585 16.705 14.71v58.838c0 8.124-7.479 14.71-16.705 14.71H201.42c-9.226 0-16.705-6.586-16.705-14.71v-58.838c0-8.125 7.479-14.71 16.705-14.71h128.112Z" clip-rule="evenodd"/><path fill="#D95B4C" fill-rule="evenodd" d="m324.526 281.934-3.452-36.945 42.094.37-38.642 36.575Z" clip-rule="evenodd"/><path fill="#E17E72" fill-rule="evenodd" d="M295.71 116.949c0-4.566 4.203-8.267 9.387-8.267h79.798c5.185 0 9.385 3.701 9.385 8.267v33.067c0 4.565-4.2 8.266-9.385 8.266h-79.798c-5.184 0-9.387-3.701-9.387-8.266v-33.067Z" clip-rule="evenodd"/><path fill="#E7E6E6" fill-rule="evenodd" stroke="#E7E6E6" stroke-miterlimit="8" stroke-width="1.333" d="M292.191 131.474c-10.861 39.275-35.455 67.727-54.932 63.55-19.477-4.176-26.462-39.4-15.601-78.675 3.747 42.408 29.178 56.292 56.8 31.013 4.739-4.337 9.364-9.687 13.733-15.888Z" clip-rule="evenodd"/><path fill="#F4B183" fill-rule="evenodd" d="M278.315 109.047c0-4.632 5.192-8.388 11.597-8.388 6.404 0 11.596 3.756 11.596 8.388 0 4.633-5.192 8.388-11.596 8.388-6.405 0-11.597-3.755-11.597-8.388Z" clip-rule="evenodd"/><path fill="#E7E6E6" fill-rule="evenodd" d="M227.788 27.718c0-6.849 6.304-12.4 14.081-12.4h56.326c7.777 0 14.081 5.551 14.081 12.4v68.564c0 6.849-6.304 12.4-14.081 12.4h-56.326c-7.777 0-14.081-5.551-14.081-12.4V27.718Z" clip-rule="evenodd"/><path fill="#F8CBAD" fill-rule="evenodd" d="M228.616 38.78c0-4.095 3.77-7.415 8.421-7.415h33.685c4.651 0 8.421 3.32 8.421 7.416v29.662c0 4.096-3.77 7.416-8.421 7.416h-33.685c-4.651 0-8.421-3.32-8.421-7.416V38.78Z" clip-rule="evenodd"/><path fill="#EF904F" fill-rule="evenodd" d="M283.106 47.245c7.023-3.436 15.02-.975 17.863 5.497 2.843 6.473-.547 14.506-7.569 17.943-3.681 1.8-7.827 2.044-11.367.665l1.073-24.104Z" clip-rule="evenodd"/><path stroke="#000" stroke-miterlimit="8" stroke-width="4" d="m232.758 44.445 10.927-2.868"/><path fill="#E7E6E6" fill-rule="evenodd" d="M216.191 76.71c0-5.304 4.883-9.604 10.907-9.604h43.624c6.023 0 10.906 4.3 10.906 9.604v78.533c0 5.304-4.883 9.604-10.906 9.604h-43.624c-6.024 0-10.907-4.3-10.907-9.604V76.71Z" clip-rule="evenodd"/><path stroke="#8FAADC" stroke-miterlimit="8" stroke-width="6" d="m227.788 90.238 23.255-7.815"/><path fill="#E7E6E6" fill-rule="evenodd" d="M292.396 14.224c0-7.453 6.305-13.495 14.082-13.495 7.777 0 14.081 6.042 14.081 13.495 0 7.452-6.304 13.494-14.081 13.494-7.777 0-14.082-6.042-14.082-13.494Z" clip-rule="evenodd"/><path fill="#EF904F" fill-rule="evenodd" d="M368.13 61.262c-3.396-2.651 1.134-12.122-.522-15.001-1.649-2.88-7.306-.758-9.393-2.273-2.096-1.515-1.657-5.682-3.14-6.819-1.474-1.136-4.783.758-5.74 0-.957-.757-2.698-3.788 0-4.546 2.698-.757 13.485 2.198 16.185 0 2.701-2.197-3.222-11.061 0-13.182 3.223-2.122 15.581-6.668 19.317.454 3.744 7.122 6.096 35.306 3.131 42.277-2.957 6.97-16.442 1.742-19.838-.91Z" clip-rule="evenodd"/><path fill="#FBE5D6" fill-rule="evenodd" d="M390.138 46.682h-14.081V26.988h-14.082v-12.4h28.163v32.094Z" clip-rule="evenodd"/><path fill="#F8CBAD" fill-rule="evenodd" d="M92.51 186.468c-5.738-3.294-25.162-1.647-31.122-.659-5.96.988-2.097 5.16-4.635 6.587-2.539 1.428-4.967 3.624-10.596 1.977-5.628-1.647-18.761-10.87-23.176-11.858-4.415-.989-6.291 2.745-3.31 5.929 2.979 3.183 8.497 10.321 21.19 13.176 12.691 2.854 46.021 6.478 54.96 3.952 8.941-2.526 2.43-15.81-3.31-19.104Z" clip-rule="evenodd"/><path fill="#E17E72" fill-rule="evenodd" d="M165.525 162.659c4.651 0 8.422 3.32 8.422 7.416v29.662c0 4.096-3.771 7.416-8.422 7.416h-65.16c-4.651 0-8.422-3.32-8.422-7.416v-29.662c0-4.096 3.77-7.416 8.422-7.416h65.16Z" clip-rule="evenodd"/><path fill="#EF904F" fill-rule="evenodd" d="M347.894 35.984c0-.94.865-1.702 1.932-1.702h15.189c1.069 0 1.93.763 1.93 1.702v6.808c0 .94-.861 1.702-1.93 1.702h-15.189c-1.067 0-1.932-.762-1.932-1.702v-6.808Z" clip-rule="evenodd"/><path fill="#E17E72" fill-rule="evenodd" d="M342.924 67.35c0-4.164 3.833-7.538 8.56-7.538h34.239c4.722 0 8.557 3.374 8.557 7.538v82.665c0 4.164-3.835 7.538-8.557 7.538h-34.239c-4.727 0-8.56-3.374-8.56-7.538V67.35Z" clip-rule="evenodd"/><path fill="#fff" fill-rule="evenodd" d="M28.991 140.047c0-5.237 5.007-9.482 11.182-9.482 6.176 0 11.183 4.245 11.183 9.482 0 5.237-5.007 9.482-11.183 9.482-6.175 0-11.182-4.245-11.182-9.482Z" clip-rule="evenodd"/><path fill="#ED7D31" fill-rule="evenodd" d="M52.18 47.407c-4.808-3.637-5.016-10.368-.463-15.034l8.243-8.448 8.705 6.586c4.808 3.637 5.014 10.368.461 15.034-4.552 4.666-12.14 5.5-16.947 1.862Z" clip-rule="evenodd"/><path fill="#000" fill-rule="evenodd" stroke="#000" stroke-miterlimit="8" stroke-width="1.333" d="M16.98 370.906v-16.047c0-8.862 18.358-16.047 41.002-16.047 22.645 0 41.002 7.185 41.002 16.047v16.047H16.98ZM377.299 370.906v-14.224c0-7.855 20.029-14.223 44.729-14.223 24.701 0 44.73 6.368 44.73 14.223v14.224h-89.459Z" clip-rule="evenodd"/></g><defs><clipPath id="a"><path fill="#fff" d="M0 0h468v372H0z"/></clipPath></defs></svg>