<svg width="468" height="372" viewBox="0 0 468 372" fill="none" xmlns="http://www.w3.org/2000/svg">
<g clip-path="url(#clip0_122_396)">
<path fill-rule="evenodd" clip-rule="evenodd" d="M60.1716 125.023C52.1916 119.42 52.2611 107.656 60.3273 98.7471C70.0642 87.9927 74.9844 73.8567 75.0879 56.3391C74.9844 73.8567 79.7489 85.997 89.3822 92.7608C97.3623 98.3634 97.2926 110.128 89.2265 119.037C81.1603 127.946 68.1524 130.626 60.1716 125.023Z" fill="#ED7D31"/>
<path fill-rule="evenodd" clip-rule="evenodd" d="M13.5902 148.141C-2.62416 135.873 -3.68604 113.545 11.2187 98.2694C29.2098 79.8299 37.4151 53.9861 35.8338 20.7388C37.4151 53.9861 47.9919 78.0144 67.5643 92.8229C83.7786 105.091 84.8397 127.419 69.9358 142.695C55.031 157.97 29.8045 160.409 13.5902 148.141Z" fill="#ED7D31"/>
<path fill-rule="evenodd" clip-rule="evenodd" d="M25.378 148.345C15.9965 141.247 15.1955 128.519 23.5897 119.915C28.6565 114.723 33.7225 109.531 38.7893 104.338C44.4508 108.622 50.1132 112.907 55.7756 117.19C65.158 124.289 65.9582 137.017 57.564 145.621C49.1698 154.223 34.7595 155.444 25.378 148.345Z" fill="#FFD966"/>
<path fill-rule="evenodd" clip-rule="evenodd" d="M52.2843 173.672C51.6291 172.914 51.7964 171.831 52.6579 171.255L58.8959 167.078C59.7574 166.501 60.9866 166.649 61.6418 167.407L74.0442 181.771C74.6986 182.53 74.5313 183.612 73.6698 184.189L67.4318 188.366C66.5703 188.943 65.3411 188.795 64.6859 188.037L52.2843 173.672Z" fill="#EF904F"/>
<path fill-rule="evenodd" clip-rule="evenodd" d="M58.8106 182.475C58.8106 181.199 59.9852 180.165 61.4339 180.165H96.7749C98.2237 180.165 99.3982 181.199 99.3982 182.475V191.714C99.3982 192.989 98.2237 194.024 96.7749 194.024H61.4339C59.9852 194.024 58.8106 192.989 58.8106 191.714V182.475Z" fill="#EF904F"/>
<path fill-rule="evenodd" clip-rule="evenodd" d="M201.131 114.521C204.356 111.559 209.697 111.461 213.061 114.301L237.42 134.871C240.784 137.712 240.896 142.416 237.67 145.377L172.72 205.018C169.495 207.98 164.154 208.078 160.79 205.238L136.431 184.667C133.067 181.826 132.955 177.123 136.181 174.161L201.131 114.521Z" fill="#E17E72"/>
<path fill-rule="evenodd" clip-rule="evenodd" d="M43.7907 320.929C41.6826 316.763 43.8073 311.881 48.5378 310.024L235.633 236.582C240.364 234.725 245.908 236.596 248.017 240.762L263.288 270.93C265.397 275.096 263.271 279.977 258.541 281.835L71.4449 355.277C66.7152 357.133 61.1705 355.262 59.0624 351.097L43.7907 320.929Z" fill="#E17E72"/>
<path fill-rule="evenodd" clip-rule="evenodd" d="M190.513 253.35C190.513 248.784 194.716 245.083 199.901 245.083H393.178C398.363 245.083 402.563 248.784 402.563 253.35V286.415C402.563 290.981 398.363 294.683 393.178 294.683H199.901C194.716 294.683 190.513 290.981 190.513 286.415V253.35Z" fill="#E17E72"/>
<path fill-rule="evenodd" clip-rule="evenodd" d="M327.324 225.388C329.535 225.388 331.327 226.967 331.327 228.914V243.016C331.327 244.963 329.535 246.541 327.324 246.541H213.568C211.357 246.541 209.565 244.963 209.565 243.016V228.914C209.565 226.967 211.357 225.388 213.568 225.388H327.324Z" fill="#FFC000"/>
<path fill-rule="evenodd" clip-rule="evenodd" d="M423.826 245.083C429.011 245.083 433.211 248.784 433.211 253.35V361.545C433.211 366.111 429.011 369.812 423.826 369.812H386.27C381.084 369.812 376.885 366.111 376.885 361.545V253.35C376.885 248.784 381.084 245.083 386.27 245.083H423.826Z" fill="#E17E72"/>
<path fill-rule="evenodd" clip-rule="evenodd" d="M322.629 108.682C335.668 108.682 346.237 117.99 346.237 129.471V212.623C346.237 224.104 335.668 233.412 322.629 233.412H214.121C201.083 233.412 190.513 224.104 190.513 212.623V129.471C190.513 117.99 201.083 108.682 214.121 108.682H322.629Z" fill="#D95B4C"/>
<path fill-rule="evenodd" clip-rule="evenodd" d="M428.241 343.188C431.214 343.188 433.625 345.311 433.625 347.93V366.894C433.625 369.513 431.214 371.635 428.241 371.635H382.683C379.71 371.635 377.299 369.513 377.299 366.894V347.93C377.299 345.311 379.71 343.188 382.683 343.188H428.241Z" fill="black" stroke="black" stroke-width="1.33333" stroke-miterlimit="8"/>
<path fill-rule="evenodd" clip-rule="evenodd" d="M329.532 245.083C338.758 245.083 346.237 251.668 346.237 259.793V318.631C346.237 326.755 338.758 333.341 329.532 333.341H201.42C192.194 333.341 184.715 326.755 184.715 318.631V259.793C184.715 251.668 192.194 245.083 201.42 245.083H329.532Z" fill="#D95B4C"/>
<path fill-rule="evenodd" clip-rule="evenodd" d="M324.526 281.934L321.074 244.989L363.168 245.359L324.526 281.934Z" fill="#D95B4C"/>
<path fill-rule="evenodd" clip-rule="evenodd" d="M295.71 116.949C295.71 112.383 299.913 108.682 305.097 108.682H384.895C390.08 108.682 394.28 112.383 394.28 116.949V150.016C394.28 154.581 390.08 158.282 384.895 158.282H305.097C299.913 158.282 295.71 154.581 295.71 150.016V116.949Z" fill="#E17E72"/>
<path fill-rule="evenodd" clip-rule="evenodd" d="M292.191 131.474C281.33 170.749 256.736 199.201 237.259 195.024C217.782 190.848 210.797 155.624 221.658 116.349C225.405 158.757 250.836 172.641 278.458 147.362C283.197 143.025 287.822 137.675 292.191 131.474Z" fill="#E7E6E6" stroke="#E7E6E6" stroke-width="1.33333" stroke-miterlimit="8"/>
<path fill-rule="evenodd" clip-rule="evenodd" d="M278.315 109.047C278.315 104.415 283.507 100.659 289.912 100.659C296.316 100.659 301.508 104.415 301.508 109.047C301.508 113.68 296.316 117.435 289.912 117.435C283.507 117.435 278.315 113.68 278.315 109.047Z" fill="#F4B183"/>
<path fill-rule="evenodd" clip-rule="evenodd" d="M227.788 27.7176C227.788 20.8692 234.092 15.3176 241.869 15.3176H298.195C305.972 15.3176 312.276 20.8692 312.276 27.7176V96.2823C312.276 103.131 305.972 108.682 298.195 108.682H241.869C234.092 108.682 227.788 103.131 227.788 96.2823V27.7176Z" fill="#E7E6E6"/>
<path fill-rule="evenodd" clip-rule="evenodd" d="M228.616 38.7807C228.616 34.685 232.386 31.3647 237.037 31.3647H270.722C275.373 31.3647 279.143 34.685 279.143 38.7807V68.4429C279.143 72.5386 275.373 75.8589 270.722 75.8589H237.037C232.386 75.8589 228.616 72.5386 228.616 68.4429V38.7807Z" fill="#F8CBAD"/>
<path fill-rule="evenodd" clip-rule="evenodd" d="M283.106 47.2455C290.129 43.8085 298.126 46.2696 300.969 52.7417C303.812 59.2145 300.422 67.2475 293.4 70.6845C289.719 72.4854 285.573 72.729 282.033 71.3504L283.106 47.2455Z" fill="#EF904F"/>
<path d="M232.758 44.4446L243.685 41.5768" stroke="black" stroke-width="4" stroke-miterlimit="8"/>
<path fill-rule="evenodd" clip-rule="evenodd" d="M216.191 76.7101C216.191 71.4058 221.074 67.106 227.098 67.106H270.722C276.745 67.106 281.628 71.4058 281.628 76.7101V155.243C281.628 160.547 276.745 164.847 270.722 164.847H227.098C221.074 164.847 216.191 160.547 216.191 155.243V76.7101Z" fill="#E7E6E6"/>
<path d="M227.788 90.2378L251.043 82.4234" stroke="#8FAADC" stroke-width="6" stroke-miterlimit="8"/>
<path fill-rule="evenodd" clip-rule="evenodd" d="M292.396 14.2236C292.396 6.77121 298.701 0.729492 306.478 0.729492C314.255 0.729492 320.559 6.77121 320.559 14.2236C320.559 21.676 314.255 27.7177 306.478 27.7177C298.701 27.7177 292.396 21.676 292.396 14.2236Z" fill="#E7E6E6"/>
<path fill-rule="evenodd" clip-rule="evenodd" d="M368.13 61.262C364.734 58.6106 369.264 49.1399 367.608 46.2609C365.959 43.3819 360.302 45.5031 358.215 43.9881C356.119 42.4731 356.558 38.306 355.075 37.1695C353.601 36.0331 350.292 37.9267 349.335 37.1695C348.378 36.4117 346.637 33.381 349.335 32.6231C352.033 31.866 362.82 34.8208 365.52 32.6231C368.221 30.4261 362.298 21.5616 365.52 19.4405C368.743 17.3193 381.101 12.7729 384.837 19.8949C388.581 27.0169 390.933 55.2013 387.968 62.1716C385.011 69.1418 371.526 63.9142 368.13 61.262Z" fill="#EF904F"/>
<path fill-rule="evenodd" clip-rule="evenodd" d="M390.138 46.6825H376.057V26.9884H361.975V14.5884H390.138V46.6825Z" fill="#FBE5D6"/>
<path fill-rule="evenodd" clip-rule="evenodd" d="M92.5107 186.468C86.7721 183.174 67.3481 184.821 61.3883 185.809C55.4286 186.797 59.291 190.969 56.753 192.396C54.2142 193.824 51.7865 196.02 46.1572 194.373C40.5288 192.726 27.3958 183.503 22.9809 182.515C18.5659 181.526 16.6898 185.26 19.6701 188.444C22.6495 191.627 28.1678 198.765 40.8601 201.62C53.5524 204.474 86.8823 208.098 95.8215 205.572C104.762 203.046 98.2502 189.762 92.5107 186.468Z" fill="#F8CBAD"/>
<path fill-rule="evenodd" clip-rule="evenodd" d="M165.525 162.659C170.176 162.659 173.947 165.979 173.947 170.075V199.737C173.947 203.833 170.176 207.153 165.525 207.153H100.365C95.7139 207.153 91.9434 203.833 91.9434 199.737V170.075C91.9434 165.979 95.7139 162.659 100.365 162.659H165.525Z" fill="#E17E72"/>
<path fill-rule="evenodd" clip-rule="evenodd" d="M347.894 35.9842C347.894 35.0447 348.759 34.2825 349.826 34.2825H365.015C366.084 34.2825 366.945 35.0447 366.945 35.9842V42.7925C366.945 43.732 366.084 44.4942 365.015 44.4942H349.826C348.759 44.4942 347.894 43.732 347.894 42.7925V35.9842Z" fill="#EF904F"/>
<path fill-rule="evenodd" clip-rule="evenodd" d="M342.924 67.3495C342.924 63.186 346.757 59.8118 351.484 59.8118H385.723C390.445 59.8118 394.28 63.186 394.28 67.3495V150.015C394.28 154.179 390.445 157.553 385.723 157.553H351.484C346.757 157.553 342.924 154.179 342.924 150.015V67.3495Z" fill="#E17E72"/>
<path fill-rule="evenodd" clip-rule="evenodd" d="M28.9911 140.047C28.9911 134.81 33.9975 130.565 40.1735 130.565C46.3494 130.565 51.3558 134.81 51.3558 140.047C51.3558 145.284 46.3494 149.529 40.1735 149.529C33.9975 149.529 28.9911 145.284 28.9911 140.047Z" fill="white"/>
<path fill-rule="evenodd" clip-rule="evenodd" d="M52.1791 47.4075C47.3716 43.7699 47.1645 37.0389 51.7169 32.3729C54.4644 29.5566 57.2128 26.7411 59.9603 23.9248C62.8619 26.1203 65.7635 28.3151 68.6651 30.5107C73.4727 34.1482 73.6789 40.8792 69.1265 45.5453C64.5741 50.2113 56.9859 51.0451 52.1791 47.4075Z" fill="#ED7D31"/>
<path fill-rule="evenodd" clip-rule="evenodd" d="M16.9805 370.906V354.859C16.9805 345.997 35.3377 338.812 57.9823 338.812C80.6269 338.812 98.9841 345.997 98.9841 354.859V370.906H16.9805Z" fill="black" stroke="black" stroke-width="1.33333" stroke-miterlimit="8"/>
<path fill-rule="evenodd" clip-rule="evenodd" d="M377.299 370.906V356.682C377.299 348.827 397.328 342.459 422.028 342.459C446.729 342.459 466.758 348.827 466.758 356.682V370.906H377.299Z" fill="black" stroke="black" stroke-width="1.33333" stroke-miterlimit="8"/>
</g>
<defs>
<clipPath id="clip0_122_396">
<rect width="468" height="372" fill="white"/>
</clipPath>
</defs>
</svg>
