<?xml version="1.0" standalone="no"?>
<!DOCTYPE svg PUBLIC "-//W3C//DTD SVG 20010904//EN"
 "http://www.w3.org/TR/2001/REC-SVG-20010904/DTD/svg10.dtd">
<svg version="1.0" xmlns="http://www.w3.org/2000/svg"
 width="270.000000pt" height="259.000000pt" viewBox="0 0 270.000000 259.000000"
 preserveAspectRatio="xMidYMid meet">

<g transform="translate(0.000000,259.000000) scale(0.100000,-0.100000)"
fill="#000000" stroke="none">
<path d="M1634 2482 c-47 -38 -56 -88 -24 -139 37 -62 134 -61 175 1 l17 26
312 0 c304 0 312 -1 351 -23 60 -34 85 -78 85 -149 0 -70 -17 -107 -67 -145
-34 -26 -44 -28 -149 -32 l-113 -3 -36 36 c-30 31 -42 36 -80 36 -37 0 -50 -6
-79 -35 l-35 -35 -98 0 c-54 0 -113 -4 -132 -10 -54 -15 -110 -59 -139 -109
-22 -38 -27 -58 -27 -116 0 -58 5 -78 27 -116 30 -50 84 -91 144 -108 24 -7
156 -11 347 -11 207 0 307 -3 307 -10 0 -6 12 -22 26 -35 64 -59 174 -10 174
77 0 38 -35 85 -73 97 -44 15 -97 -4 -122 -43 l-17 -26 -307 0 c-298 0 -308 1
-351 23 -64 31 -90 75 -90 149 0 70 17 107 67 145 34 26 44 28 150 32 l114 3
35 -36 c30 -31 42 -36 79 -36 37 0 49 5 78 35 l34 35 94 0 c52 0 111 4 132 9
55 13 114 58 145 110 22 38 27 58 27 116 0 59 -5 78 -28 118 -29 48 -75 84
-136 105 -23 8 -132 12 -338 12 l-304 0 -35 35 c-29 29 -42 35 -77 35 -25 0
-51 -8 -63 -18z"/>
</g>
</svg>
