<?xml version="1.0" standalone="no"?>
<!DOCTYPE svg PUBLIC "-//W3C//DTD SVG 20010904//EN"
 "http://www.w3.org/TR/2001/REC-SVG-20010904/DTD/svg10.dtd">
<svg version="1.0" xmlns="http://www.w3.org/2000/svg"
 width="280.000000pt" height="296.000000pt" viewBox="0 0 280.000000 296.000000"
 preserveAspectRatio="xMidYMid meet">

<g transform="translate(0.000000,296.000000) scale(0.100000,-0.100000)"
fill="#000000" stroke="none">
<path d="M1970 2877 c0 -56 -39 -119 -90 -144 -25 -12 -57 -25 -72 -28 -40 -8
-35 -25 7 -25 44 0 110 -42 133 -84 9 -17 18 -51 21 -75 8 -61 27 -63 35 -4 8
62 37 108 84 136 41 24 40 24 82 26 46 2 36 18 -21 31 -74 18 -123 68 -139
143 -13 65 -40 81 -40 24z m42 -107 c9 -17 34 -40 54 -52 l37 -22 -24 -15
c-33 -22 -75 -63 -81 -81 -4 -11 -15 -4 -42 27 -20 23 -45 45 -56 48 -23 7
-27 35 -6 35 8 0 32 20 53 45 21 24 40 44 43 45 3 0 13 -14 22 -30z"/>
<path d="M2416 2629 c-3 -17 -6 -42 -6 -55 0 -13 -10 -49 -21 -81 -40 -105
-143 -181 -271 -198 -27 -3 -48 -10 -48 -15 0 -4 24 -11 53 -15 77 -10 161
-51 208 -102 49 -53 67 -93 82 -186 16 -92 33 -97 39 -13 13 159 115 269 277
297 33 6 61 15 61 19 0 4 -28 13 -61 19 -163 28 -267 140 -277 299 -5 68 -25
85 -36 31z m102 -252 c20 -21 61 -50 90 -64 28 -14 52 -29 52 -32 0 -4 -23
-18 -50 -31 -65 -30 -127 -91 -155 -152 l-22 -48 -27 55 c-31 62 -89 116 -158
148 -27 12 -48 25 -48 28 0 3 23 16 52 30 66 31 127 91 157 153 l23 50 25 -50
c13 -27 41 -66 61 -87z"/>
<path d="M1800 2215 c0 -37 -20 -86 -49 -119 -22 -25 -85 -56 -114 -56 -45 0
-38 -14 14 -27 74 -19 106 -47 142 -121 l32 -66 8 34 c23 88 63 129 150 151
51 12 63 29 20 29 -39 0 -110 37 -133 70 -11 16 -25 54 -32 84 -13 65 -38 78
-38 21z m68 -142 c18 -18 40 -33 49 -33 9 0 -9 -24 -43 -57 l-59 -58 -55 54
c-33 33 -49 56 -42 59 23 7 67 49 82 77 14 25 15 26 25 9 5 -10 25 -34 43 -51z"/>
</g>
</svg>
