<?xml version="1.0" standalone="no"?>
<!DOCTYPE svg PUBLIC "-//W3C//DTD SVG 20010904//EN"
 "http://www.w3.org/TR/2001/REC-SVG-20010904/DTD/svg10.dtd">
<svg version="1.0" xmlns="http://www.w3.org/2000/svg"
 width="292.000000pt" height="274.000000pt" viewBox="0 0 292.000000 274.000000"
 preserveAspectRatio="xMidYMid meet">

<g transform="translate(0.000000,274.000000) scale(0.100000,-0.100000)"
fill="#000000" stroke="none">
<path d="M2402 2467 l-164 -92 77 -23 c87 -27 87 -27 41 -120 -117 -240 -285
-391 -480 -434 l-51 -11 44 -20 c57 -25 185 -26 256 -2 169 57 314 197 425
411 16 32 30 64 30 71 0 23 20 24 91 3 39 -12 72 -20 73 -18 2 2 -120 225
-169 310 -9 14 -31 4 -173 -75z"/>
</g>
</svg>
