<?xml version="1.0" standalone="no"?>
<!DOCTYPE svg PUBLIC "-//W3C//DTD SVG 20010904//EN"
 "http://www.w3.org/TR/2001/REC-SVG-20010904/DTD/svg10.dtd">
<svg version="1.0" xmlns="http://www.w3.org/2000/svg"
 width="263.000000pt" height="276.000000pt" viewBox="0 0 263.000000 276.000000"
 preserveAspectRatio="xMidYMid meet">

<g transform="translate(0.000000,276.000000) scale(0.100000,-0.100000)"
fill="#000000" stroke="none">
<path d="M1805 2663 c-13 -89 -54 -131 -155 -158 -48 -13 -43 -19 25 -30 60
-10 119 -75 131 -145 11 -63 34 -81 34 -26 0 19 5 47 11 63 22 58 97 113 155
113 39 0 28 17 -18 29 -24 6 -57 19 -74 30 -35 21 -74 96 -74 141 0 50 -27 37
-35 -17z m111 -153 c24 0 14 -24 -19 -45 -17 -11 -41 -34 -53 -52 l-21 -31
-17 29 c-10 17 -33 40 -52 52 -38 25 -43 43 -14 52 11 4 34 24 52 45 l31 39
39 -44 c22 -25 46 -45 54 -45z"/>
<path d="M2250 2421 c0 -74 -38 -169 -88 -223 -56 -60 -97 -82 -187 -101 -75
-15 -74 -22 6 -37 155 -30 254 -140 267 -296 6 -83 27 -86 36 -6 11 91 34 148
81 200 50 56 131 96 213 107 53 7 63 25 13 25 -67 0 -185 58 -234 114 -33 38
-66 124 -73 191 -5 45 -11 65 -20 65 -10 0 -14 -13 -14 -39z m103 -249 c18
-18 59 -46 91 -62 l59 -28 -52 -27 c-72 -36 -133 -94 -161 -155 l-23 -50 -29
52 c-38 70 -79 111 -145 145 -29 15 -53 31 -53 34 0 4 24 19 54 33 63 31 120
90 148 154 l20 45 30 -54 c16 -30 43 -69 61 -87z"/>
<path d="M1647 2043 c-3 -5 -8 -29 -12 -54 -12 -78 -88 -149 -161 -149 -45 0
-33 -17 21 -29 88 -20 145 -90 145 -178 0 -14 6 -23 15 -23 10 0 15 10 15 33
0 56 39 119 90 144 25 12 57 25 73 28 34 7 36 25 2 25 -31 0 -93 30 -117 57
-24 27 -48 87 -48 123 0 28 -13 40 -23 23z m67 -181 c15 -11 32 -22 39 -25 6
-2 -14 -28 -45 -58 l-56 -55 -27 34 c-15 18 -38 38 -51 44 -32 15 -30 30 6 52
17 10 41 33 53 51 l21 33 17 -27 c9 -15 29 -37 43 -49z"/>
</g>
</svg>
