<?xml version="1.0" standalone="no"?>
<!DOCTYPE svg PUBLIC "-//W3C//DTD SVG 20010904//EN"
 "http://www.w3.org/TR/2001/REC-SVG-20010904/DTD/svg10.dtd">
<svg version="1.0" xmlns="http://www.w3.org/2000/svg"
 width="290.000000pt" height="277.000000pt" viewBox="0 0 290.000000 277.000000"
 preserveAspectRatio="xMidYMid meet">

<g transform="translate(0.000000,277.000000) scale(0.100000,-0.100000)"
fill="#000000" stroke="none">
<path d="M1828 2659 c-51 -38 -46 -128 9 -165 49 -32 138 -10 150 37 5 18 19
19 322 19 309 0 317 -1 356 -23 61 -34 85 -78 85 -152 0 -53 -4 -68 -29 -102
-41 -56 -89 -73 -209 -73 -97 0 -98 0 -120 30 -42 56 -125 56 -173 0 -25 -30
-26 -30 -130 -30 -113 -1 -159 -12 -214 -54 -55 -42 -79 -98 -79 -181 0 -77
14 -113 63 -162 66 -67 72 -68 434 -71 209 -2 327 -7 327 -13 0 -23 54 -59 87
-59 92 0 140 80 94 156 -39 64 -135 63 -176 0 l-17 -26 -307 0 c-279 0 -310 2
-348 19 -59 27 -93 84 -93 156 0 67 18 105 67 142 34 26 44 28 150 32 l114 3
35 -36 c30 -31 42 -36 79 -36 37 0 49 5 78 35 l34 35 94 0 c52 0 111 4 132 9
55 13 114 58 145 110 22 38 27 58 27 116 0 110 -52 184 -156 220 -33 12 -103
15 -346 15 l-304 0 -33 35 c-28 30 -40 35 -77 35 -28 -1 -54 -8 -71 -21z"/>
</g>
</svg>
