<?xml version="1.0" standalone="no"?>
<!DOCTYPE svg PUBLIC "-//W3C//DTD SVG 20010904//EN"
 "http://www.w3.org/TR/2001/REC-SVG-20010904/DTD/svg10.dtd">
<svg version="1.0" xmlns="http://www.w3.org/2000/svg"
 width="150.000000pt" height="150.000000pt" viewBox="0 0 150.000000 150.000000"
 preserveAspectRatio="xMidYMid meet">
<metadata>
Created by potrace 1.16, written by Peter Selinger 2001-2019
</metadata>
<g transform="translate(0.000000,150.000000) scale(0.029297,-0.029297)"
fill="#000000" stroke="none">
<path d="M322 4830 c-12 -5 -27 -21 -32 -35 -6 -17 -10 -310 -10 -781 l0 -755
25 -24 c30 -30 64 -32 99 -4 l26 20 0 720 0 719 719 0 720 0 20 26 c28 35 26
69 -4 99 l-24 25 -758 -1 c-430 0 -768 -4 -781 -9z"/>
<path d="M3235 4816 c-30 -31 -32 -65 -4 -100 l20 -26 720 0 719 0 0 -719 0
-720 26 -20 c35 -28 69 -26 100 4 l24 24 -2 770 c-3 724 -4 771 -21 788 -17
17 -64 18 -788 21 l-770 2 -24 -24z"/>
<path d="M17 2612 c-23 -25 -22 -85 1 -105 17 -16 208 -17 2544 -17 2433 0
2526 1 2541 18 23 25 22 85 -1 105 -17 16 -208 17 -2544 17 -2433 0 -2526 -1
-2541 -18z"/>
<path d="M304 1885 l-24 -24 2 -770 c3 -724 4 -771 21 -788 17 -17 64 -18 788
-21 l770 -2 24 24 c30 31 32 65 4 100 l-20 26 -720 0 -719 0 0 719 0 720 -26
20 c-35 28 -69 26 -100 -4z"/>
<path d="M4716 1889 l-26 -20 0 -720 0 -719 -719 0 -720 0 -20 -26 c-28 -35
-26 -69 4 -100 l24 -24 770 2 c724 3 771 4 788 21 17 17 18 64 21 788 l2 770
-24 24 c-31 30 -65 32 -100 4z"/>
</g>
</svg>
