<?xml version="1.0" standalone="no"?>
<!DOCTYPE svg PUBLIC "-//W3C//DTD SVG 20010904//EN"
 "http://www.w3.org/TR/2001/REC-SVG-20010904/DTD/svg10.dtd">
<svg version="1.0" xmlns="http://www.w3.org/2000/svg"
 width="512.000000pt" height="512.000000pt" viewBox="0 0 512.000000 512.000000"
 preserveAspectRatio="xMidYMid meet">
<metadata>
Created by potrace 1.16, written by Peter Selinger 2001-2019
</metadata>
<g transform="translate(0.000000,512.000000) scale(0.100000,-0.100000)"
fill="#000000" stroke="none">
<path d="M1063 5099 c-70 -27 -142 -94 -178 -166 l-30 -58 -3 -1242 -2 -1243
-284 0 c-278 0 -284 0 -317 -23 -18 -12 -44 -38 -56 -56 l-23 -34 0 -827 0
-827 22 -33 c13 -18 36 -43 51 -54 27 -20 42 -21 317 -24 l288 -3 4 -132 c3
-116 6 -138 28 -182 36 -74 114 -148 183 -174 l58 -21 1797 2 1797 3 50 27
c70 36 137 112 164 181 l21 58 0 1997 c0 1988 -1 1997 -21 2042 -29 65 -725
760 -789 789 -45 20 -60 21 -1535 20 -1465 0 -1491 0 -1542 -20z m2949 -386
l3 -228 32 -67 c41 -88 113 -160 201 -201 l67 -32 228 -3 227 -3 0 -1943 0
-1943 -23 -34 c-12 -18 -38 -44 -56 -56 l-34 -23 -1754 0 c-1944 0 -1785 -6
-1840 67 -26 34 -28 43 -31 150 l-4 113 1047 0 c894 0 1050 2 1074 14 47 25
89 81 96 128 3 24 5 399 3 833 l-3 790 -24 38 c-12 21 -40 46 -62 57 -37 20
-63 20 -1084 20 l-1045 0 2 1223 3 1222 24 33 c13 19 38 43 55 53 30 18 74 19
1463 19 l1432 0 3 -227z m506 -351 c-68 -2 -139 2 -159 7 -59 18 -114 64 -143
122 -24 49 -26 62 -26 188 l0 136 225 -225 225 -225 -122 -3z m-1448 -2912 l0
-760 -1360 0 -1360 0 0 760 0 760 1360 0 1360 0 0 -760z"/>
<path d="M1414 4520 c-28 -11 -54 -48 -54 -78 0 -30 25 -78 45 -86 9 -3 492
-6 1073 -6 815 1 1061 3 1073 13 44 34 50 93 15 134 l-24 28 -1054 2 c-581 1
-1063 -2 -1074 -7z"/>
<path d="M1389 4071 c-20 -20 -29 -39 -29 -61 0 -22 9 -41 29 -61 l29 -29
1057 0 1057 0 29 29 c39 40 39 82 0 122 l-29 29 -1057 0 -1057 0 -29 -29z"/>
<path d="M1390 3652 c-13 -10 -23 -33 -27 -58 -4 -33 -1 -45 20 -70 l25 -29
1492 0 1492 0 24 28 c32 38 32 90 -1 122 l-24 25 -1489 0 c-1407 0 -1491 -1
-1512 -18z"/>
<path d="M1414 3240 c-28 -11 -54 -48 -54 -78 0 -30 25 -78 45 -86 9 -3 685
-6 1501 -6 l1485 0 24 25 c38 37 35 95 -6 129 l-31 26 -1471 -1 c-810 0 -1482
-4 -1493 -9z"/>
<path d="M1389 2791 c-20 -20 -29 -39 -29 -61 0 -22 9 -41 29 -61 l29 -29
1477 0 c1103 0 1482 3 1498 12 34 18 46 39 47 81 0 27 -7 45 -25 62 l-24 25
-1486 0 -1487 0 -29 -29z"/>
<path d="M3523 2368 c-30 -33 -36 -62 -19 -102 23 -56 40 -58 489 -54 l399 3
24 28 c32 38 32 90 -1 122 l-24 25 -424 0 -424 0 -20 -22z"/>
<path d="M3538 1955 c-29 -16 -52 -71 -42 -101 4 -10 16 -29 27 -41 l20 -23
424 0 424 0 24 25 c38 37 35 95 -6 129 l-31 26 -406 0 c-336 -1 -412 -3 -434
-15z"/>
<path d="M3523 1516 c-22 -19 -28 -32 -28 -66 0 -34 6 -47 28 -66 l28 -24 410
0 c420 0 437 1 466 39 22 28 16 89 -12 116 l-24 25 -420 0 -420 0 -28 -24z"/>
<path d="M3523 1088 c-30 -33 -36 -62 -19 -102 23 -56 40 -58 489 -54 l399 3
24 28 c32 38 32 90 -1 122 l-24 25 -424 0 -424 0 -20 -22z"/>
<path d="M3538 675 c-29 -16 -52 -71 -42 -101 4 -10 16 -29 27 -41 l20 -23
424 0 424 0 24 25 c38 37 35 95 -6 129 l-31 26 -406 0 c-336 -1 -412 -3 -434
-15z"/>
<path d="M640 1957 c-50 -25 -50 -31 -48 -482 3 -473 1 -460 80 -513 41 -27
43 -27 238 -30 160 -3 203 -1 233 12 44 18 62 52 53 100 -12 62 -27 66 -238
66 l-188 0 0 404 0 404 -31 26 c-34 29 -61 32 -99 13z"/>
<path d="M1530 1955 c-110 -31 -193 -108 -234 -216 -15 -39 -17 -79 -14 -305
3 -258 3 -259 29 -309 112 -210 390 -255 556 -89 91 91 106 160 101 454 -3
208 -4 217 -29 271 -15 31 -43 75 -64 98 -79 87 -227 128 -345 96z m171 -191
c37 -19 67 -59 80 -107 6 -24 9 -115 7 -231 -3 -178 -5 -193 -26 -227 -40 -65
-110 -95 -179 -77 -46 11 -75 34 -102 79 -19 32 -21 49 -21 247 0 236 6 263
62 303 56 41 118 45 179 13z"/>
<path d="M2383 1955 c-97 -27 -184 -101 -227 -194 -20 -43 -21 -61 -21 -311
l0 -265 28 -56 c67 -138 221 -215 371 -188 113 20 201 86 251 186 25 50 30 72
33 164 4 101 3 107 -21 134 -23 27 -30 29 -115 33 -113 5 -157 -2 -188 -33
-33 -33 -33 -87 1 -120 20 -21 34 -25 85 -25 68 0 72 -7 44 -66 -34 -72 -115
-112 -186 -94 -47 13 -97 55 -114 97 -17 40 -20 416 -3 460 28 76 123 126 193
103 49 -16 93 -54 116 -101 23 -44 46 -59 90 -59 43 0 80 39 80 85 0 52 -22
98 -75 153 -84 90 -225 130 -342 97z"/>
</g>
</svg>
