<?xml version="1.0" standalone="no"?>
<!DOCTYPE svg PUBLIC "-//W3C//DTD SVG 20010904//EN"
 "http://www.w3.org/TR/2001/REC-SVG-20010904/DTD/svg10.dtd">
<svg version="1.0" xmlns="http://www.w3.org/2000/svg"
 width="512.000000pt" height="512.000000pt" viewBox="0 0 512.000000 512.000000"
 preserveAspectRatio="xMidYMid meet">
<metadata>
Created by potrace 1.16, written by Peter Selinger 2001-2019
</metadata>
<g transform="translate(0.000000,512.000000) scale(0.100000,-0.100000)"
fill="#000000" stroke="none">
<path d="M295 4941 c-22 -10 -54 -34 -72 -52 -63 -66 -63 -69 -63 -491 0 -427
1 -428 71 -495 49 -46 97 -63 179 -63 l70 0 0 -80 0 -80 -70 0 c-82 0 -130
-17 -179 -63 -70 -67 -71 -68 -71 -497 0 -429 1 -430 71 -497 49 -46 97 -63
179 -63 l70 0 0 -80 0 -80 -72 0 c-85 0 -137 -20 -185 -71 -63 -66 -63 -69
-63 -491 0 -427 1 -428 71 -495 70 -66 27 -63 899 -63 l790 0 0 -345 c0 -267
3 -353 13 -378 75 -178 434 -312 1012 -379 149 -18 841 -18 990 0 578 67 937
201 1012 379 11 27 13 257 13 1285 0 1248 0 1252 -21 1295 -97 201 -608 355
-1261 380 -159 6 -167 7 -176 28 -19 41 -76 98 -117 116 -27 13 -64 19 -112
19 l-73 0 0 80 0 80 70 0 c82 0 130 17 179 63 70 67 71 68 71 497 0 429 -1
430 -71 497 -72 68 48 63 -1611 63 -1443 0 -1505 -1 -1543 -19z m3009 -155
c23 -9 37 -24 45 -46 15 -45 15 -635 0 -680 -23 -63 64 -60 -1507 -60 -1040 0
-1438 3 -1462 11 -57 20 -60 41 -60 387 0 341 3 366 54 388 47 20 2881 21
2930 0z m-2344 -1026 l0 -80 -160 0 -160 0 0 80 0 80 160 0 160 0 0 -80z
m1600 0 l0 -80 -720 0 -720 0 0 80 0 80 720 0 720 0 0 -80z m480 0 l0 -80
-160 0 -160 0 0 80 0 80 160 0 160 0 0 -80z m-10 -251 c-464 -37 -862 -148
-1017 -284 -86 -75 -93 -100 -93 -318 l0 -187 -754 0 c-536 0 -762 3 -786 11
-57 20 -60 41 -60 387 0 205 4 320 11 342 22 63 -59 59 1439 58 818 0 1323 -4
1260 -9z m670 -163 c372 -12 770 -93 973 -198 155 -81 155 -136 0 -215 -220
-114 -595 -187 -1030 -201 -355 -12 -696 7 -953 54 -336 61 -600 173 -600 254
0 72 207 168 500 234 228 51 672 90 895 79 33 -1 130 -5 215 -7z m-1552 -575
c142 -72 369 -133 627 -170 221 -31 376 -41 665 -41 289 0 444 10 665 41 258
37 485 98 627 170 31 16 60 29 63 29 3 0 5 -125 5 -279 0 -327 3 -319 -115
-383 -210 -114 -602 -191 -1043 -206 -624 -21 -1172 57 -1447 206 -118 64
-115 56 -115 383 0 154 2 279 5 279 3 0 32 -13 63 -29z m-1188 -291 l0 -80
-160 0 -160 0 0 80 0 80 160 0 160 0 0 -80z m960 0 l0 -80 -400 0 -400 0 0 80
0 80 400 0 400 0 0 -80z m0 -640 l0 -400 -754 0 c-536 0 -762 3 -786 11 -57
20 -60 41 -60 387 0 205 4 320 11 342 22 61 -2 59 832 60 l757 0 0 -400z m228
131 c142 -72 369 -133 627 -170 221 -31 376 -41 665 -41 289 0 444 10 665 41
258 37 485 98 627 170 31 16 60 29 63 29 3 0 5 -125 5 -279 0 -327 3 -319
-115 -383 -210 -114 -602 -191 -1043 -206 -624 -21 -1172 57 -1447 206 -118
64 -115 56 -115 383 0 154 2 279 5 279 3 0 32 -13 63 -29z m0 -800 c189 -95
521 -170 895 -200 165 -14 629 -14 794 0 374 30 706 105 895 200 31 16 60 29
63 29 3 0 5 -125 5 -279 0 -327 3 -319 -115 -383 -210 -114 -602 -191 -1043
-206 -624 -21 -1172 57 -1447 206 -118 64 -115 56 -115 383 0 154 2 279 5 279
3 0 32 -13 63 -29z"/>
<path d="M500 4620 c-19 -19 -20 -33 -20 -220 0 -187 1 -201 20 -220 19 -19
33 -20 220 -20 187 0 201 1 220 20 19 19 20 33 20 220 0 187 -1 201 -20 220
-19 19 -33 20 -220 20 -187 0 -201 -1 -220 -20z m300 -220 l0 -80 -80 0 -80 0
0 80 0 80 80 0 80 0 0 -80z"/>
<path d="M1140 4620 c-19 -19 -20 -33 -20 -220 0 -187 1 -201 20 -220 19 -19
33 -20 220 -20 187 0 201 1 220 20 19 19 20 33 20 220 0 187 -1 201 -20 220
-19 19 -33 20 -220 20 -187 0 -201 -1 -220 -20z m300 -220 l0 -80 -80 0 -80 0
0 80 0 80 80 0 80 0 0 -80z"/>
<path d="M1760 4560 l0 -80 560 0 560 0 0 80 0 80 -560 0 -560 0 0 -80z"/>
<path d="M3040 4560 l0 -80 80 0 80 0 0 80 0 80 -80 0 -80 0 0 -80z"/>
<path d="M1760 4240 l0 -80 560 0 560 0 0 80 0 80 -560 0 -560 0 0 -80z"/>
<path d="M3040 4240 l0 -80 80 0 80 0 0 80 0 80 -80 0 -80 0 0 -80z"/>
<path d="M500 3340 c-19 -19 -20 -33 -20 -220 0 -187 1 -201 20 -220 19 -19
33 -20 220 -20 187 0 201 1 220 20 19 19 20 33 20 220 0 187 -1 201 -20 220
-19 19 -33 20 -220 20 -187 0 -201 -1 -220 -20z m300 -220 l0 -80 -80 0 -80 0
0 80 0 80 80 0 80 0 0 -80z"/>
<path d="M1140 3340 c-19 -19 -20 -33 -20 -220 0 -187 1 -201 20 -220 19 -19
33 -20 220 -20 187 0 201 1 220 20 19 19 20 33 20 220 0 187 -1 201 -20 220
-19 19 -33 20 -220 20 -187 0 -201 -1 -220 -20z m300 -220 l0 -80 -80 0 -80 0
0 80 0 80 80 0 80 0 0 -80z"/>
<path d="M3360 2240 l0 -80 80 0 80 0 0 80 0 80 -80 0 -80 0 0 -80z"/>
<path d="M500 2060 c-19 -19 -20 -33 -20 -220 0 -187 1 -201 20 -220 19 -19
33 -20 220 -20 187 0 201 1 220 20 19 19 20 33 20 220 0 187 -1 201 -20 220
-19 19 -33 20 -220 20 -187 0 -201 -1 -220 -20z m300 -220 l0 -80 -80 0 -80 0
0 80 0 80 80 0 80 0 0 -80z"/>
<path d="M1140 2060 c-19 -19 -20 -33 -20 -220 0 -187 1 -201 20 -220 19 -19
33 -20 220 -20 187 0 201 1 220 20 19 19 20 33 20 220 0 187 -1 201 -20 220
-19 19 -33 20 -220 20 -187 0 -201 -1 -220 -20z m300 -220 l0 -80 -80 0 -80 0
0 80 0 80 80 0 80 0 0 -80z"/>
<path d="M3360 1360 l0 -80 80 0 80 0 0 80 0 80 -80 0 -80 0 0 -80z"/>
<path d="M3360 640 l0 -80 80 0 80 0 0 80 0 80 -80 0 -80 0 0 -80z"/>
</g>
</svg>
