<?xml version="1.0" standalone="no"?>
<!DOCTYPE svg PUBLIC "-//W3C//DTD SVG 20010904//EN"
 "http://www.w3.org/TR/2001/REC-SVG-20010904/DTD/svg10.dtd">
<svg version="1.0" xmlns="http://www.w3.org/2000/svg"
 width="512.000000pt" height="512.000000pt" viewBox="0 0 512.000000 512.000000"
 preserveAspectRatio="xMidYMid meet">
<metadata>
Created by potrace 1.16, written by Peter Selinger 2001-2019
</metadata>
<g transform="translate(0.000000,512.000000) scale(0.100000,-0.100000)"
fill="#000000" stroke="none">
<path d="M2240 5105 c-451 -58 -852 -220 -1220 -493 -150 -112 -400 -362 -512
-512 -186 -251 -315 -504 -402 -792 -76 -250 -105 -461 -105 -748 0 -287 29
-498 105 -748 125 -411 329 -748 643 -1063 316 -315 652 -518 1065 -643 263
-80 489 -110 801 -104 196 3 213 5 253 26 63 34 102 100 102 173 0 71 -12 104
-53 147 -55 58 -76 62 -310 62 -268 0 -388 14 -603 70 -359 95 -690 287 -963
561 -323 323 -521 703 -608 1169 -25 136 -25 564 0 700 87 466 285 846 608
1169 321 322 708 523 1164 607 118 21 448 30 583 15 539 -59 1062 -334 1407
-741 40 -47 104 -132 144 -190 l72 -105 -308 -5 c-301 -5 -309 -6 -346 -28
-125 -78 -118 -280 12 -349 44 -23 46 -23 425 -23 416 0 440 3 563 60 131 61
233 161 298 293 62 129 65 150 65 561 0 356 -1 371 -21 414 -13 26 -38 54 -62
70 -35 23 -51 27 -117 27 -66 0 -82 -4 -117 -27 -24 -16 -49 -44 -62 -70 -20
-42 -21 -59 -21 -343 l0 -299 -49 71 c-132 193 -375 447 -554 581 -342 257
-709 415 -1142 493 -154 28 -570 36 -735 14z"/>
<path d="M2462 4339 c-25 -13 -55 -39 -70 -62 l-27 -41 -3 -790 -2 -791 -379
-380 c-208 -209 -387 -396 -397 -415 -35 -71 -14 -192 42 -241 67 -59 172 -70
245 -26 65 38 854 833 874 879 13 33 15 144 15 890 0 847 0 852 -21 896 -31
64 -85 96 -168 100 -53 2 -75 -1 -109 -19z"/>
<path d="M4782 2234 c-68 -34 -92 -76 -133 -233 -34 -134 -34 -175 -2 -239 64
-123 258 -137 341 -24 41 57 97 276 88 346 -16 141 -163 216 -294 150z"/>
<path d="M4397 1346 c-48 -18 -64 -32 -147 -131 -87 -104 -101 -127 -111 -178
-13 -69 7 -133 55 -182 67 -67 157 -79 246 -35 41 21 198 210 216 262 35 95
-8 207 -97 253 -41 22 -119 27 -162 11z"/>
<path d="M3553 646 c-171 -84 -213 -131 -213 -239 0 -115 85 -200 198 -200 51
0 72 7 190 67 159 81 184 109 190 211 8 124 -77 215 -201 215 -45 0 -72 -9
-164 -54z"/>
</g>
</svg>
