<?xml version="1.0" standalone="no"?>
<!DOCTYPE svg PUBLIC "-//W3C//DTD SVG 20010904//EN"
 "http://www.w3.org/TR/2001/REC-SVG-20010904/DTD/svg10.dtd">
<svg version="1.0" xmlns="http://www.w3.org/2000/svg"
 width="512.000000pt" height="512.000000pt" viewBox="0 0 512.000000 512.000000"
 preserveAspectRatio="xMidYMid meet">
<metadata>
Created by potrace 1.16, written by Peter Selinger 2001-2019
</metadata>
<g transform="translate(0.000000,512.000000) scale(0.100000,-0.100000)"
fill="#000000" stroke="none">
<path d="M681 5094 l-21 -27 0 -1798 c0 -1315 3 -1805 11 -1823 14 -31 57 -49
93 -40 60 15 56 -114 56 1806 l0 1758 1740 0 1740 0 0 -253 c0 -252 0 -254 23
-275 32 -30 81 -29 112 3 l25 24 0 299 c0 288 -1 300 -21 326 l-20 26 -1859 0
-1859 0 -20 -26z"/>
<path d="M1695 4775 c-25 -24 -25 -26 -25 -215 0 -189 0 -191 25 -215 l24 -25
841 0 841 0 24 25 c25 24 25 26 25 215 0 189 0 191 -25 215 l-24 25 -841 0
-841 0 -24 -25z m1595 -215 l0 -80 -730 0 -730 0 0 80 0 80 730 0 730 0 0 -80z"/>
<path d="M4326 4207 l-26 -26 0 -2016 0 -2015 -1740 0 -1740 0 0 508 0 509
-23 21 c-32 30 -81 29 -112 -3 l-25 -24 0 -554 c0 -546 0 -555 21 -581 l20
-26 1859 0 1859 0 20 26 21 27 -2 2068 c-3 1864 -5 2070 -19 2084 -8 9 -32 18
-51 22 -30 4 -41 1 -62 -20z"/>
<path d="M1416 4125 c-194 -54 -359 -220 -411 -415 -19 -71 -19 -229 0 -300
27 -101 74 -180 154 -261 120 -120 239 -169 411 -169 172 0 291 49 411 169 80
80 134 173 158 275 15 62 15 209 0 272 -48 200 -220 378 -415 428 -75 19 -239
20 -308 1z m103 -626 c21 -17 42 -19 247 -19 l223 0 -19 -55 c-44 -127 -147
-227 -279 -270 -82 -27 -217 -18 -296 20 -78 37 -173 132 -210 210 -38 79 -47
214 -20 296 43 133 142 235 269 279 l51 17 5 -229 c5 -227 5 -230 29 -249z
m249 434 c90 -45 183 -160 212 -262 l9 -31 -170 0 -169 0 0 169 0 170 32 -10
c18 -5 57 -21 86 -36z"/>
<path d="M2500 4118 c-27 -30 -26 -79 3 -106 l23 -22 786 0 c748 0 786 1 801
18 23 26 22 94 -1 115 -17 16 -87 17 -805 17 l-786 0 -21 -22z"/>
<path d="M2505 3785 c-16 -15 -25 -36 -25 -55 0 -19 9 -40 25 -55 l24 -25 781
0 c767 0 780 0 800 20 31 31 27 93 -6 119 -26 21 -33 21 -801 21 l-774 0 -24
-25z"/>
<path d="M2505 3445 c-30 -29 -32 -74 -6 -106 l19 -24 780 -3 c777 -2 779 -2
805 19 34 26 38 88 7 119 -20 20 -33 20 -800 20 l-781 0 -24 -25z"/>
<path d="M2500 3108 c-11 -12 -20 -35 -20 -53 0 -18 9 -41 20 -53 l21 -22 484
0 484 0 20 26 c27 34 27 64 0 98 l-20 26 -484 0 -484 0 -21 -22z"/>
<path d="M1146 2619 c-20 -16 -26 -29 -26 -59 0 -30 6 -43 26 -59 26 -21 34
-21 736 -21 l709 0 24 25 c16 15 25 36 25 55 0 19 -9 40 -25 55 l-24 25 -709
0 c-702 0 -710 0 -736 -21z"/>
<path d="M1140 2280 c-28 -28 -27 -90 1 -116 20 -18 49 -19 718 -22 383 -1
706 0 719 3 59 14 80 80 41 129 l-20 26 -720 0 c-706 0 -719 0 -739 -20z"/>
<path d="M3495 2289 c-47 -26 -45 10 -45 -981 l0 -939 25 -24 24 -25 276 0
c262 0 276 1 295 20 20 20 20 33 20 660 0 627 0 640 -20 660 -21 21 -69 26
-100 10 -38 -20 -40 -56 -40 -631 l0 -559 -160 0 -160 0 0 830 0 830 159 0
159 0 4 -111 c3 -107 4 -112 31 -135 34 -29 66 -30 101 -3 l26 20 0 173 c0
163 -1 174 -21 192 -19 18 -41 19 -288 21 -182 2 -272 -1 -286 -8z"/>
<path d="M1170 1963 c-52 -20 -69 -94 -30 -133 19 -19 33 -20 435 -20 402 0
416 1 435 20 28 28 27 90 -1 116 -20 18 -43 19 -423 21 -220 1 -408 -1 -416
-4z"/>
<path d="M2665 1865 l-25 -24 0 -736 0 -736 25 -24 24 -25 274 0 c256 0 276 1
298 19 l24 19 0 747 0 747 -24 19 c-22 18 -42 19 -298 19 l-274 0 -24 -25z
m465 -760 l0 -625 -165 0 -165 0 0 625 0 625 165 0 165 0 0 -625z"/>
<path d="M1880 1277 c-50 -25 -50 -31 -48 -490 l3 -429 24 -19 c22 -18 42 -19
298 -19 l274 0 24 25 25 24 0 425 c0 296 -3 433 -11 450 -7 14 -25 30 -42 36
-45 15 -515 13 -547 -3z m440 -472 l0 -325 -165 0 -165 0 0 325 0 325 165 0
165 0 0 -325z"/>
<path d="M1050 780 c-19 -19 -20 -33 -20 -220 0 -187 1 -201 20 -220 19 -19
33 -20 295 -20 l276 0 24 25 c25 24 25 26 25 215 0 189 0 191 -25 215 l-24 25
-276 0 c-262 0 -276 -1 -295 -20z m460 -220 l0 -80 -160 0 -160 0 0 80 0 80
160 0 160 0 0 -80z"/>
</g>
</svg>
